<?xml version="1.0" encoding="UTF-8"?>
<svg id="_图层_1" xmlns="http://www.w3.org/2000/svg" version="1.1" viewBox="0 0 200 200">
  <!-- Generator: Adobe Illustrator 29.8.2, SVG Export Plug-In . SVG Version: 2.1.1 Build 3)  -->
  <g>
    <path d="M137.5389,95.8996h18.425c1.6691,0,3.1006.6582,4.1518,1.6766l-36.2332-58.8c-1.0923-1.7728-3.0258-2.8524-5.1081-2.8524h-18.3389c-4.6926,0-7.5689,5.1443-5.1116,9.142l34.5305,56.1765c.1695.2757.3655.5281.573.7689l1.9998-3.2535c1.0917-1.7759,3.0269-2.858,5.1116-2.858Z" fill="#004eea"/>
    <path d="M161.7167,100.2164c-.2971-1.0005-.8494-1.9122-1.601-2.6403-1.0512-1.0184-2.4827-1.6766-4.1518-1.6766h-18.425c-2.0847,0-4.0199,1.0821-5.1116,2.858l-1.9998,3.2535-35.5884,57.8975c-1.1202,1.8224.191,4.1676,2.3302,4.1676h24.1781c2.0823,0,4.0157-1.0796,5.1081-2.8524l34.6165-56.1766c.6674-1.0831.9315-2.2493.885-3.3762-.0205-.4968-.1007-.9843-.2404-1.4545Z" fill="#0034b7"/>
  </g>
  <g>
    <path d="M61.7931,95.8996c1.9495,0,3.7775.9472,4.9018,2.5399l2.5835,3.6599c.1527-.1707.2978-.3495.4315-.539l16.5483-23.4435c2.8055-3.9745-.0369-9.4601-4.9019-9.4601h-17.8286c-1.9537,0-3.7851.9512-4.9086,2.5495l-18.224,25.9254c.9843-.7577,2.2216-1.2321,3.6382-1.2321h17.7597Z" fill="#ffa522"/>
    <path d="M86.8768,127.0304l-17.5984-24.931-2.5835-3.6599c-1.1243-1.5927-2.9523-2.5399-4.9018-2.5399h-17.7597c-1.4166,0-2.6539.4744-3.6382,1.2321-1.0119.779-1.7437,1.8619-2.1063,3.0714-.1398.4665-.2247.9482-.2479,1.4401-.0588,1.2477.2643,2.5412,1.0838,3.707l16.4794,23.4436c1.1235,1.5983,2.9549,2.5495,4.9086,2.5495h24.1294v-.0002c2.2178,0,3.5135-2.5007,2.2346-4.3126Z" fill="#ffb757"/>
  </g>
</svg>