<?xml version="1.0" encoding="UTF-8"?>
<svg xmlns="http://www.w3.org/2000/svg" version="1.1" xmlns:xlink="http://www.w3.org/1999/xlink" viewBox="0 0 200 200">
  <!-- Generator: Adobe Illustrator 30.1.0, SVG Export Plug-In . SVG Version: 2.1.1 Build 136)  -->
  <defs>
    <style>
      .st0 {
        fill: url(#_铃琨眄_沭噤桢眚_821);
      }

      .st1 {
        fill: #202b33;
      }

      .st2 {
        fill: url(#_铃琨眄_沭噤桢眚_822);
      }

      .st3 {
        fill: url(#_铃琨眄_沭噤桢眚_823);
      }

      .st4 {
        fill: #2f3d4d;
      }

      .st5 {
        fill: #10161a;
      }

      .st6 {
        fill: url(#_铃琨眄_沭噤桢眚_1143);
      }

      .st7 {
        fill: url(#_铃琨眄_沭噤桢眚_1144);
      }

      .st8 {
        fill: url(#_铃琨眄_沭噤桢眚_82);
      }

      .st9 {
        isolation: isolate;
      }

      .st10 {
        fill: url(#_铃琨眄_沭噤桢眚_1145);
      }

      .st11 {
        fill: url(#_铃琨眄_沭噤桢眚_114);
      }

      .st12 {
        fill: #3b50c9;
      }

      .st13 {
        fill: #364759;
        mix-blend-mode: screen;
      }

      .st14 {
        fill: url(#_铃琨眄_沭噤桢眚_824);
      }

      .st15 {
        fill: #10141a;
      }

      .st16 {
        fill: #1028ad;
      }

      .st17 {
        fill: #1a2229;
      }

      .st18 {
        fill: #161c24;
      }

      .st19 {
        fill: url(#_铃琨眄_沭噤桢眚_825);
      }

      .st20 {
        fill: #42556c;
      }

      .st21 {
        fill: #556f8c;
      }

      .st22 {
        fill: url(#_铃琨眄_沭噤桢眚_1141);
      }

      .st23 {
        fill: #364557;
      }

      .st24 {
        fill: #334552;
      }

      .st25 {
        fill: url(#_铃琨眄_沭噤桢眚_1142);
      }
    </style>
    <linearGradient id="_铃琨眄_沭噤桢眚_82" data-name="铃琨眄 沭噤桢眚 82" x1="-457.31" y1="118.63" x2="-457.26" y2="124.03" gradientTransform="translate(-372.23) rotate(-180) scale(1 -1)" gradientUnits="userSpaceOnUse">
      <stop offset="0" stop-color="#0b1a73"/>
      <stop offset="1" stop-color="#0d208c"/>
    </linearGradient>
    <linearGradient id="_铃琨眄_沭噤桢眚_821" data-name="铃琨眄 沭噤桢眚 82" x1="-457.28" y1="126.98" x2="-457.28" y2="131.86" xlink:href="#_铃琨眄_沭噤桢眚_82"/>
    <linearGradient id="_铃琨眄_沭噤桢眚_822" data-name="铃琨眄 沭噤桢眚 82" x1="-457.28" y1="133.94" x2="-457.28" y2="139.51" xlink:href="#_铃琨眄_沭噤桢眚_82"/>
    <linearGradient id="_铃琨眄_沭噤桢眚_823" data-name="铃琨眄 沭噤桢眚 82" x1="-399.51" y1="84.11" x2="-399.46" y2="89.19" xlink:href="#_铃琨眄_沭噤桢眚_82"/>
    <linearGradient id="_铃琨眄_沭噤桢眚_824" data-name="铃琨眄 沭噤桢眚 82" x1="-399.54" y1="92.45" x2="-399.44" y2="97.69" xlink:href="#_铃琨眄_沭噤桢眚_82"/>
    <linearGradient id="_铃琨眄_沭噤桢眚_825" data-name="铃琨眄 沭噤桢眚 82" x1="-399.58" y1="100.48" x2="-399.42" y2="105.94" xlink:href="#_铃琨眄_沭噤桢眚_82"/>
    <radialGradient id="_铃琨眄_沭噤桢眚_114" data-name="铃琨眄 沭噤桢眚 114" cx="503.35" cy="82.07" fx="503.35" fy="82.07" r="1.98" gradientTransform="translate(-482.91)" gradientUnits="userSpaceOnUse">
      <stop offset="0" stop-color="#b3ff0e"/>
      <stop offset="1" stop-color="#7fb50a"/>
    </radialGradient>
    <radialGradient id="_铃琨眄_沭噤桢眚_1141" data-name="铃琨眄 沭噤桢眚 114" cy="91.27" fy="91.27" xlink:href="#_铃琨眄_沭噤桢眚_114"/>
    <radialGradient id="_铃琨眄_沭噤桢眚_1142" data-name="铃琨眄 沭噤桢眚 114" cy="100.46" fy="100.46" xlink:href="#_铃琨眄_沭噤桢眚_114"/>
    <radialGradient id="_铃琨眄_沭噤桢眚_1143" data-name="铃琨眄 沭噤桢眚 114" cx="561.62" cy="117.14" fx="561.62" fy="117.14" r="1.98" xlink:href="#_铃琨眄_沭噤桢眚_114"/>
    <radialGradient id="_铃琨眄_沭噤桢眚_1144" data-name="铃琨眄 沭噤桢眚 114" cx="561.62" cy="125.3" fx="561.62" fy="125.3" r="1.98" xlink:href="#_铃琨眄_沭噤桢眚_114"/>
    <radialGradient id="_铃琨眄_沭噤桢眚_1145" data-name="铃琨眄 沭噤桢眚 114" cx="561.62" cy="134.11" fx="561.62" fy="134.11" r="1.98" xlink:href="#_铃琨眄_沭噤桢眚_114"/>
  </defs>
  <g class="st9">
    <g id="_图层_1">
      <g>
        <g>
          <polygon class="st4" points="13.91 69.63 130 136.66 197.67 96.92 198.17 96.63 82.08 29.6 14.99 69.01 13.91 69.63"/>
          <polygon class="st21" points="15.66 68.61 130 134.63 196.43 95.62 198.17 96.63 197.67 96.92 130 136.66 13.91 69.63 14.99 69.01 15.66 68.61"/>
          <polygon class="st15" points="13.92 69.64 13.92 97.55 130 164.58 130 136.66 13.92 69.64"/>
          <polygon class="st18" points="198.17 96.62 198.17 124.54 130 164.58 130 136.66 198.17 96.62"/>
          <polygon class="st5" points="194.32 122.33 194.32 103.36 133.86 138.87 133.86 157.84 194.32 122.33"/>
          <polygon class="st23" points="193.27 121.82 193.27 103.97 194.32 103.36 194.32 122.33 133.86 157.84 133.86 156.72 193.27 121.82"/>
        </g>
        <g>
          <polygon class="st4" points="131.88 142.48 4.2 68.26 7.04 66.59 134.71 140.81 131.88 142.48"/>
          <polygon class="st1" points="4.2 68.26 4.2 96.17 131.88 170.4 131.88 142.48 4.2 68.26"/>
          <polygon class="st5" points="12.15 77.27 12.15 95.82 10.32 94.76 10.32 76.61 12.15 77.27"/>
          <polygon class="st5" points="125.9 143.14 125.9 161.69 124.07 160.63 124.07 142.48 125.9 143.14"/>
          <polygon class="st18" points="134.71 140.81 134.71 168.73 131.88 170.4 131.88 142.48 134.71 140.81"/>
        </g>
        <g>
          <g>
            <path class="st5" d="M119.93,137.9l-.64-.37v2.79l.64.37c.67.39,1.21.08,1.21-.69,0-.39-.14-.82-.36-1.2-.22-.38-.52-.71-.86-.9Z"/>
            <path class="st21" d="M119.63,137.72v2.45l.64.37c.22.13.43.17.61.16-.22.2-.57.22-.95,0l-.64-.37v-2.79l.34.2Z"/>
            <path class="st5" d="M116.51,137.32c0,.38.14.82.36,1.19.22.38.53.71.86.91l.64.37v-2.79l-.64-.37c-.68-.39-1.22-.08-1.22.7Z"/>
            <path class="st21" d="M117.11,136.47c-.16.14-.26.38-.26.71,0,.38.14.82.35,1.19.22.38.53.71.86.91l.29.17v.35l-.64-.37c-.34-.2-.64-.53-.86-.91-.22-.38-.36-.81-.36-1.19,0-.52.24-.82.6-.85Z"/>
            <polygon class="st18" points="119.63 140.17 119.29 140.32 119.29 137.53 119.63 137.72 119.63 140.17"/>
          </g>
          <g>
            <path class="st5" d="M119.93,141.52l-.64-.37v2.79l.64.37c.67.39,1.21.08,1.21-.69,0-.39-.13-.82-.36-1.2-.22-.38-.52-.71-.86-.9Z"/>
            <path class="st21" d="M119.63,141.35v2.45l.64.37c.22.13.43.17.61.16-.22.2-.57.22-.95,0l-.64-.37v-2.79l.34.2Z"/>
            <path class="st5" d="M116.51,140.94c0,.38.14.82.36,1.19.22.38.53.71.86.91l.64.37v-2.79l-.64-.37c-.68-.39-1.22-.08-1.22.7Z"/>
            <path class="st21" d="M117.11,140.09c-.16.14-.26.38-.26.71,0,.38.14.82.35,1.19.22.38.53.71.86.91l.29.17v.35l-.64-.37c-.34-.19-.64-.53-.86-.91-.22-.37-.36-.81-.36-1.19,0-.52.24-.82.6-.85Z"/>
            <polygon class="st18" points="119.63 143.79 119.29 143.94 119.29 141.15 119.63 141.35 119.63 143.79"/>
          </g>
          <g>
            <path class="st5" d="M119.93,145.14l-.64-.37v2.79l.64.37c.67.39,1.21.08,1.21-.69,0-.39-.13-.82-.36-1.2-.22-.38-.52-.71-.86-.9Z"/>
            <path class="st21" d="M119.63,144.97v2.45l.64.37c.22.13.43.17.61.16-.22.2-.57.22-.95,0l-.64-.37v-2.79l.34.2Z"/>
            <path class="st5" d="M116.51,144.57c0,.38.14.82.36,1.19.22.38.53.71.86.91l.64.37v-2.79l-.64-.37c-.68-.39-1.22-.08-1.22.7Z"/>
            <path class="st21" d="M117.11,143.71c-.16.14-.26.38-.26.71,0,.38.14.82.35,1.19.22.38.53.71.86.91l.29.17v.35l-.64-.37c-.34-.2-.64-.53-.86-.91-.22-.37-.36-.81-.36-1.19,0-.52.24-.82.6-.85Z"/>
            <polygon class="st18" points="119.63 147.41 119.29 147.56 119.29 144.77 119.63 144.97 119.63 147.41"/>
          </g>
          <g>
            <path class="st5" d="M119.93,148.76l-.64-.37v2.79l.64.37c.67.39,1.21.08,1.21-.69,0-.39-.13-.82-.36-1.2-.22-.38-.52-.71-.86-.9Z"/>
            <path class="st21" d="M119.63,148.59v2.45l.64.37c.22.13.43.17.61.16-.22.2-.57.22-.95,0l-.64-.37v-2.79l.34.2Z"/>
            <path class="st5" d="M116.51,148.19c0,.38.14.82.36,1.19.22.38.53.71.86.91l.64.37v-2.79l-.64-.37c-.68-.39-1.22-.08-1.22.7Z"/>
            <path class="st21" d="M117.11,147.33c-.16.14-.26.38-.26.71,0,.38.14.82.35,1.19.22.38.53.71.86.91l.29.17v.35l-.64-.37c-.34-.2-.64-.53-.86-.91-.22-.37-.36-.81-.36-1.19,0-.52.24-.82.6-.85Z"/>
            <polygon class="st18" points="119.63 151.04 119.29 151.18 119.29 148.39 119.63 148.59 119.63 151.04"/>
          </g>
          <g>
            <path class="st5" d="M119.93,152.38l-.64-.37v2.79l.64.37c.67.39,1.21.08,1.21-.69,0-.39-.13-.82-.36-1.2-.22-.38-.52-.71-.86-.9Z"/>
            <path class="st21" d="M119.63,152.21v2.45l.64.37c.22.13.43.17.61.16-.22.2-.57.22-.95,0l-.64-.37v-2.79l.34.2Z"/>
            <path class="st5" d="M116.51,151.81c0,.38.14.82.36,1.19.22.38.53.71.86.91l.64.37v-2.79l-.64-.37c-.68-.39-1.22-.08-1.22.7Z"/>
            <path class="st21" d="M117.11,150.95c-.16.14-.26.38-.26.71,0,.38.14.82.35,1.19.22.38.53.71.86.91l.29.17v.35l-.64-.37c-.34-.19-.64-.53-.86-.91-.22-.37-.36-.81-.36-1.19,0-.52.24-.82.6-.85Z"/>
            <polygon class="st18" points="119.63 154.66 119.29 154.8 119.29 152.01 119.63 152.21 119.63 154.66"/>
          </g>
          <g>
            <path class="st5" d="M119.93,156l-.64-.37v2.79l.64.37c.67.39,1.21.08,1.21-.69,0-.39-.13-.82-.36-1.2-.22-.38-.52-.71-.86-.9Z"/>
            <path class="st21" d="M119.63,155.83v2.45l.64.37c.22.13.43.17.61.16-.22.2-.57.22-.95,0l-.64-.37v-2.79l.34.2Z"/>
            <path class="st5" d="M116.51,155.43c0,.38.14.82.36,1.19.22.38.53.71.86.91l.64.37v-2.79l-.64-.37c-.68-.39-1.22-.08-1.22.7Z"/>
            <path class="st21" d="M117.11,154.58c-.16.14-.26.38-.26.71,0,.38.14.82.35,1.19.22.38.53.71.86.91l.29.17v.35l-.64-.37c-.34-.2-.64-.53-.86-.91-.22-.37-.36-.81-.36-1.19,0-.52.24-.82.6-.85Z"/>
            <polygon class="st18" points="119.63 158.28 119.29 158.43 119.29 155.63 119.63 155.83 119.63 158.28"/>
          </g>
          <g>
            <path class="st5" d="M119.93,159.62l-.64-.37v2.79l.64.37c.67.39,1.21.08,1.21-.69,0-.39-.14-.82-.36-1.2-.22-.38-.52-.71-.86-.9Z"/>
            <path class="st21" d="M119.63,159.45v2.45l.64.37c.22.13.43.17.61.16-.22.2-.57.22-.95,0l-.64-.37v-2.79l.34.2Z"/>
            <path class="st5" d="M116.51,159.05c0,.38.14.82.36,1.19.22.38.53.71.86.91l.64.37v-2.79l-.64-.37c-.68-.39-1.22-.08-1.22.7Z"/>
            <path class="st21" d="M117.11,158.2c-.16.14-.26.38-.26.71,0,.38.14.82.35,1.19.22.38.53.71.86.91l.29.17v.35l-.64-.37c-.34-.2-.64-.53-.86-.91-.22-.38-.36-.81-.36-1.19,0-.52.24-.82.6-.85Z"/>
            <polygon class="st18" points="119.63 161.9 119.29 162.05 119.29 159.25 119.63 159.45 119.63 161.9"/>
          </g>
        </g>
        <g>
          <g>
            <path class="st5" d="M16.87,77.65l-.64-.37v2.79l.64.37c.67.39,1.21.08,1.21-.69,0-.39-.14-.82-.35-1.2-.22-.38-.52-.71-.86-.9Z"/>
            <path class="st21" d="M16.57,77.48v2.45l.64.37c.22.13.43.17.61.16-.22.2-.57.22-.95,0l-.64-.37v-2.79l.34.2Z"/>
            <path class="st5" d="M13.45,77.08c0,.38.14.82.35,1.19.22.38.53.71.86.91l.64.37v-2.79l-.64-.37c-.68-.39-1.22-.08-1.22.7Z"/>
            <path class="st21" d="M14.05,76.22c-.16.14-.26.38-.26.71,0,.38.14.82.36,1.19.22.38.53.71.86.91l.29.17v.35l-.64-.37c-.34-.19-.64-.53-.86-.91-.22-.38-.35-.81-.35-1.19,0-.52.24-.82.6-.85Z"/>
            <polygon class="st18" points="16.57 79.93 16.23 80.07 16.23 77.28 16.57 77.48 16.57 79.93"/>
          </g>
          <g>
            <path class="st5" d="M16.87,81.27l-.64-.37v2.79l.64.37c.67.39,1.21.08,1.21-.69,0-.39-.13-.82-.35-1.2-.22-.38-.52-.71-.86-.9Z"/>
            <path class="st21" d="M16.57,81.1v2.45l.64.37c.22.13.43.17.61.16-.22.2-.57.22-.95,0l-.64-.37v-2.79l.34.2Z"/>
            <path class="st5" d="M13.45,80.7c0,.38.14.82.35,1.19.22.38.53.71.86.91l.64.37v-2.79l-.64-.37c-.68-.39-1.22-.08-1.22.7Z"/>
            <path class="st21" d="M14.05,79.85c-.16.14-.26.38-.26.71,0,.38.14.82.36,1.19.22.38.53.71.86.91l.29.17v.35l-.64-.37c-.34-.19-.64-.53-.86-.91-.22-.37-.35-.81-.35-1.19,0-.52.24-.82.6-.85Z"/>
            <polygon class="st18" points="16.57 83.55 16.23 83.7 16.23 80.9 16.57 81.1 16.57 83.55"/>
          </g>
          <g>
            <path class="st5" d="M16.87,84.89l-.64-.37v2.79l.64.37c.67.39,1.21.08,1.21-.69,0-.39-.13-.82-.35-1.2-.22-.38-.52-.71-.86-.9Z"/>
            <path class="st21" d="M16.57,84.72v2.45l.64.37c.22.13.43.17.61.16-.22.2-.57.22-.95,0l-.64-.37v-2.79l.34.2Z"/>
            <path class="st5" d="M13.45,84.32c0,.38.14.82.35,1.19.22.38.53.71.86.91l.64.37v-2.79l-.64-.37c-.68-.39-1.22-.08-1.22.7Z"/>
            <path class="st21" d="M14.05,83.47c-.16.14-.26.38-.26.71,0,.38.14.82.36,1.19.22.38.53.71.86.91l.29.17v.35l-.64-.37c-.34-.2-.64-.53-.86-.91-.22-.37-.35-.81-.35-1.19,0-.52.24-.82.6-.85Z"/>
            <polygon class="st18" points="16.57 87.17 16.23 87.32 16.23 84.52 16.57 84.72 16.57 87.17"/>
          </g>
          <g>
            <path class="st5" d="M16.87,88.51l-.64-.37v2.79l.64.37c.67.39,1.21.08,1.21-.69,0-.39-.13-.82-.35-1.2-.22-.38-.52-.71-.86-.9Z"/>
            <path class="st21" d="M16.57,88.34v2.45l.64.37c.22.13.43.17.61.16-.22.2-.57.22-.95,0l-.64-.37v-2.79l.34.2Z"/>
            <path class="st5" d="M13.45,87.94c0,.38.14.82.35,1.19.22.38.53.71.86.91l.64.37v-2.79l-.64-.37c-.68-.39-1.22-.08-1.22.7Z"/>
            <path class="st21" d="M14.05,87.09c-.16.14-.26.38-.26.71,0,.38.14.82.36,1.19.22.38.53.71.86.91l.29.17v.35l-.64-.37c-.34-.19-.64-.53-.86-.91-.22-.37-.35-.81-.35-1.19,0-.52.24-.82.6-.85Z"/>
            <polygon class="st18" points="16.57 90.79 16.23 90.94 16.23 88.14 16.57 88.34 16.57 90.79"/>
          </g>
          <g>
            <path class="st5" d="M16.87,92.14l-.64-.37v2.79l.64.37c.67.39,1.21.08,1.21-.69,0-.39-.13-.82-.35-1.2-.22-.38-.52-.71-.86-.9Z"/>
            <path class="st21" d="M16.57,91.96v2.45l.64.37c.22.13.43.17.61.16-.22.2-.57.22-.95,0l-.64-.37v-2.79l.34.2Z"/>
            <path class="st5" d="M13.45,91.56c0,.38.14.82.35,1.19.22.38.53.71.86.91l.64.37v-2.79l-.64-.37c-.68-.39-1.22-.08-1.22.7Z"/>
            <path class="st21" d="M14.05,90.71c-.16.14-.26.38-.26.71,0,.38.14.82.36,1.19.22.38.53.71.86.91l.29.17v.35l-.64-.37c-.34-.19-.64-.53-.86-.91-.22-.37-.35-.81-.35-1.19,0-.52.24-.82.6-.85Z"/>
            <polygon class="st18" points="16.57 94.41 16.23 94.56 16.23 91.77 16.57 91.96 16.57 94.41"/>
          </g>
          <g>
            <path class="st5" d="M16.87,95.76l-.64-.37v2.79l.64.37c.67.39,1.21.08,1.21-.69,0-.39-.13-.82-.35-1.2-.22-.38-.52-.71-.86-.9Z"/>
            <path class="st21" d="M16.57,95.58v2.45l.64.37c.22.13.43.17.61.16-.22.2-.57.22-.95,0l-.64-.37v-2.79l.34.2Z"/>
            <path class="st5" d="M13.45,95.18c0,.38.14.82.35,1.19.22.38.53.71.86.91l.64.37v-2.79l-.64-.37c-.68-.39-1.22-.08-1.22.7Z"/>
            <path class="st21" d="M14.05,94.33c-.16.14-.26.38-.26.71,0,.38.14.82.36,1.19.22.38.53.71.86.91l.29.17v.35l-.64-.37c-.34-.2-.64-.53-.86-.91-.22-.37-.35-.81-.35-1.19,0-.52.24-.82.6-.85Z"/>
            <polygon class="st18" points="16.57 98.03 16.23 98.18 16.23 95.39 16.57 95.58 16.57 98.03"/>
          </g>
          <g>
            <path class="st5" d="M16.87,99.38l-.64-.37v2.79l.64.37c.67.39,1.21.08,1.21-.69,0-.39-.14-.82-.35-1.2-.22-.38-.52-.71-.86-.9Z"/>
            <path class="st21" d="M16.57,99.21v2.45l.64.37c.22.13.43.17.61.16-.22.2-.57.22-.95,0l-.64-.37v-2.79l.34.2Z"/>
            <path class="st5" d="M13.45,98.8c0,.38.14.82.35,1.19.22.38.53.71.86.91l.64.37v-2.79l-.64-.37c-.68-.39-1.22-.08-1.22.7Z"/>
            <path class="st21" d="M14.05,97.95c-.16.14-.26.38-.26.71,0,.38.14.82.36,1.19.22.38.53.71.86.91l.29.17v.35l-.64-.37c-.34-.19-.64-.53-.86-.91-.22-.38-.35-.81-.35-1.19,0-.52.24-.82.6-.85Z"/>
            <polygon class="st18" points="16.57 101.65 16.23 101.8 16.23 99.01 16.57 99.21 16.57 101.65"/>
          </g>
        </g>
        <g>
          <g>
            <path class="st5" d="M74.91,111.4l-.64-.37v2.79l.64.37c.67.39,1.21.08,1.21-.69,0-.39-.14-.82-.35-1.2-.22-.38-.52-.71-.86-.9Z"/>
            <path class="st21" d="M74.61,111.22v2.45l.64.37c.22.13.43.17.61.16-.22.2-.57.22-.95,0l-.64-.37v-2.79l.34.2Z"/>
            <path class="st5" d="M71.49,110.82c0,.38.14.82.36,1.19.22.38.53.71.86.91l.64.37v-2.79l-.64-.37c-.68-.39-1.22-.08-1.22.7Z"/>
            <path class="st21" d="M72.09,109.97c-.16.14-.26.38-.26.71,0,.38.14.82.35,1.19.22.38.53.71.86.91l.29.17v.35l-.64-.37c-.34-.19-.64-.53-.86-.91-.22-.38-.36-.81-.36-1.19,0-.52.24-.82.6-.85Z"/>
            <polygon class="st18" points="74.61 113.67 74.26 113.82 74.26 111.03 74.61 111.22 74.61 113.67"/>
          </g>
          <g>
            <path class="st5" d="M74.91,115.02l-.64-.37v2.79l.64.37c.67.39,1.21.08,1.21-.69,0-.39-.13-.82-.35-1.2-.22-.38-.52-.71-.86-.9Z"/>
            <path class="st21" d="M74.61,114.84v2.45l.64.37c.22.13.43.17.61.16-.22.2-.57.22-.95,0l-.64-.37v-2.79l.34.2Z"/>
            <path class="st5" d="M71.49,114.44c0,.38.14.82.36,1.19.22.38.53.71.86.91l.64.37v-2.79l-.64-.37c-.68-.39-1.22-.08-1.22.7Z"/>
            <path class="st21" d="M72.09,113.59c-.16.14-.26.38-.26.71,0,.38.14.82.35,1.19.22.38.53.71.86.91l.29.17v.35l-.64-.37c-.34-.2-.64-.53-.86-.91-.22-.37-.36-.81-.36-1.19,0-.52.24-.82.6-.85Z"/>
            <polygon class="st18" points="74.61 117.29 74.26 117.44 74.26 114.65 74.61 114.84 74.61 117.29"/>
          </g>
          <g>
            <path class="st5" d="M74.91,118.64l-.64-.37v2.79l.64.37c.67.39,1.21.08,1.21-.69,0-.39-.13-.82-.35-1.2-.22-.38-.52-.71-.86-.9Z"/>
            <path class="st21" d="M74.61,118.46v2.45l.64.37c.22.13.43.17.61.16-.22.2-.57.22-.95,0l-.64-.37v-2.79l.34.2Z"/>
            <path class="st5" d="M71.49,118.06c0,.38.14.82.36,1.19.22.38.53.71.86.91l.64.37v-2.79l-.64-.37c-.68-.39-1.22-.08-1.22.7Z"/>
            <path class="st21" d="M72.09,117.21c-.16.14-.26.38-.26.71,0,.38.14.82.35,1.19.22.38.53.71.86.91l.29.17v.35l-.64-.37c-.34-.2-.64-.53-.86-.91-.22-.37-.36-.81-.36-1.19,0-.52.24-.82.6-.85Z"/>
            <polygon class="st18" points="74.61 120.91 74.26 121.06 74.26 118.27 74.61 118.46 74.61 120.91"/>
          </g>
          <g>
            <path class="st5" d="M74.91,122.26l-.64-.37v2.79l.64.37c.67.39,1.21.08,1.21-.69,0-.39-.13-.82-.35-1.2-.22-.38-.52-.71-.86-.9Z"/>
            <path class="st21" d="M74.61,122.09v2.45l.64.37c.22.13.43.17.61.16-.22.2-.57.22-.95,0l-.64-.37v-2.79l.34.2Z"/>
            <path class="st5" d="M71.49,121.69c0,.38.14.82.36,1.19.22.38.53.71.86.91l.64.37v-2.79l-.64-.37c-.68-.39-1.22-.08-1.22.7Z"/>
            <path class="st21" d="M72.09,120.83c-.16.14-.26.38-.26.71,0,.38.14.82.35,1.19.22.38.53.71.86.91l.29.17v.35l-.64-.37c-.34-.19-.64-.53-.86-.91-.22-.37-.36-.81-.36-1.19,0-.52.24-.82.6-.85Z"/>
            <polygon class="st18" points="74.61 124.53 74.26 124.68 74.26 121.89 74.61 122.09 74.61 124.53"/>
          </g>
          <g>
            <path class="st5" d="M74.91,125.88l-.64-.37v2.79l.64.37c.67.39,1.21.08,1.21-.69,0-.39-.13-.82-.35-1.2-.22-.38-.52-.71-.86-.9Z"/>
            <path class="st21" d="M74.61,125.71v2.45l.64.37c.22.13.43.17.61.16-.22.2-.57.22-.95,0l-.64-.37v-2.79l.34.2Z"/>
            <path class="st5" d="M71.49,125.31c0,.38.14.82.36,1.19.22.38.53.71.86.91l.64.37v-2.79l-.64-.37c-.68-.39-1.22-.08-1.22.7Z"/>
            <path class="st21" d="M72.09,124.45c-.16.14-.26.38-.26.71,0,.38.14.82.35,1.19.22.38.53.71.86.91l.29.17v.35l-.64-.37c-.34-.2-.64-.53-.86-.91-.22-.37-.36-.81-.36-1.19,0-.52.24-.82.6-.85Z"/>
            <polygon class="st18" points="74.61 128.15 74.26 128.3 74.26 125.51 74.61 125.71 74.61 128.15"/>
          </g>
          <g>
            <path class="st5" d="M74.91,129.5l-.64-.37v2.79l.64.37c.67.39,1.21.08,1.21-.69,0-.39-.13-.82-.35-1.2-.22-.38-.52-.71-.86-.9Z"/>
            <path class="st21" d="M74.61,129.33v2.45l.64.37c.22.13.43.17.61.16-.22.2-.57.22-.95,0l-.64-.37v-2.79l.34.2Z"/>
            <path class="st5" d="M71.49,128.93c0,.38.14.82.36,1.19.22.38.53.71.86.91l.64.37v-2.79l-.64-.37c-.68-.39-1.22-.08-1.22.7Z"/>
            <path class="st21" d="M72.09,128.07c-.16.14-.26.38-.26.71,0,.38.14.82.35,1.19.22.38.53.71.86.91l.29.17v.35l-.64-.37c-.34-.2-.64-.53-.86-.91-.22-.37-.36-.81-.36-1.19,0-.52.24-.82.6-.85Z"/>
            <polygon class="st18" points="74.61 131.78 74.26 131.92 74.26 129.13 74.61 129.33 74.61 131.78"/>
          </g>
          <g>
            <path class="st5" d="M74.91,133.12l-.64-.37v2.79l.64.37c.67.39,1.21.08,1.21-.69,0-.39-.14-.82-.35-1.2-.22-.38-.52-.71-.86-.9Z"/>
            <path class="st21" d="M74.61,132.95v2.45l.64.37c.22.13.43.17.61.16-.22.2-.57.22-.95,0l-.64-.37v-2.79l.34.2Z"/>
            <path class="st5" d="M71.49,132.55c0,.38.14.82.36,1.19.22.38.53.71.86.91l.64.37v-2.79l-.64-.37c-.68-.39-1.22-.08-1.22.7Z"/>
            <path class="st21" d="M72.09,131.69c-.16.14-.26.38-.26.71,0,.38.14.82.35,1.19.22.38.53.71.86.91l.29.17v.35l-.64-.37c-.34-.19-.64-.53-.86-.91-.22-.38-.36-.81-.36-1.19,0-.52.24-.82.6-.85Z"/>
            <polygon class="st18" points="74.61 135.4 74.26 135.54 74.26 132.75 74.61 132.95 74.61 135.4"/>
          </g>
        </g>
        <g>
          <g>
            <path class="st5" d="M61.9,103.62l-.64-.37v2.79l.64.37c.67.39,1.21.08,1.21-.69,0-.39-.14-.82-.35-1.2-.22-.38-.52-.71-.86-.9Z"/>
            <path class="st21" d="M61.6,103.45v2.45l.64.37c.22.13.43.17.61.16-.22.2-.57.22-.95,0l-.64-.37v-2.79l.34.2Z"/>
            <path class="st5" d="M58.48,103.05c0,.38.14.82.35,1.19.22.38.53.71.86.91l.64.37v-2.79l-.64-.37c-.68-.39-1.22-.08-1.22.7Z"/>
            <path class="st21" d="M59.09,102.19c-.16.14-.26.38-.26.71,0,.38.14.82.35,1.19.22.38.53.71.86.91l.29.17v.35l-.64-.37c-.34-.19-.64-.53-.86-.91-.22-.38-.35-.81-.35-1.19,0-.52.24-.82.6-.85Z"/>
            <polygon class="st18" points="61.6 105.89 61.26 106.04 61.26 103.25 61.6 103.45 61.6 105.89"/>
          </g>
          <g>
            <path class="st5" d="M61.9,107.24l-.64-.37v2.79l.64.37c.67.39,1.21.08,1.21-.69,0-.39-.13-.82-.35-1.2-.22-.38-.52-.71-.86-.9Z"/>
            <path class="st21" d="M61.6,107.07v2.45l.64.37c.22.13.43.17.61.16-.22.2-.57.22-.95,0l-.64-.37v-2.79l.34.2Z"/>
            <path class="st5" d="M58.48,106.67c0,.38.14.82.35,1.19.22.38.53.71.86.91l.64.37v-2.79l-.64-.37c-.68-.39-1.22-.08-1.22.7Z"/>
            <path class="st21" d="M59.09,105.81c-.16.14-.26.38-.26.71,0,.38.14.82.35,1.19.22.38.53.71.86.91l.29.17v.35l-.64-.37c-.34-.2-.64-.53-.86-.91-.22-.37-.35-.81-.35-1.19,0-.52.24-.82.6-.85Z"/>
            <polygon class="st18" points="61.6 109.51 61.26 109.66 61.26 106.87 61.6 107.07 61.6 109.51"/>
          </g>
          <g>
            <path class="st5" d="M61.9,110.86l-.64-.37v2.79l.64.37c.67.39,1.21.08,1.21-.69,0-.39-.13-.82-.35-1.2-.22-.38-.52-.71-.86-.9Z"/>
            <path class="st21" d="M61.6,110.69v2.45l.64.37c.22.13.43.17.61.16-.22.2-.57.22-.95,0l-.64-.37v-2.79l.34.2Z"/>
            <path class="st5" d="M58.48,110.29c0,.38.14.82.35,1.19.22.38.53.71.86.91l.64.37v-2.79l-.64-.37c-.68-.39-1.22-.08-1.22.7Z"/>
            <path class="st21" d="M59.09,109.43c-.16.14-.26.38-.26.71,0,.38.14.82.35,1.19.22.38.53.71.86.91l.29.17v.35l-.64-.37c-.34-.2-.64-.53-.86-.91-.22-.37-.35-.81-.35-1.19,0-.52.24-.82.6-.85Z"/>
            <polygon class="st18" points="61.6 113.14 61.26 113.28 61.26 110.49 61.6 110.69 61.6 113.14"/>
          </g>
          <g>
            <path class="st5" d="M61.9,114.48l-.64-.37v2.79l.64.37c.67.39,1.21.08,1.21-.69,0-.39-.13-.82-.35-1.2-.22-.38-.52-.71-.86-.9Z"/>
            <path class="st21" d="M61.6,114.31v2.45l.64.37c.22.13.43.17.61.16-.22.2-.57.22-.95,0l-.64-.37v-2.79l.34.2Z"/>
            <path class="st5" d="M58.48,113.91c0,.38.14.82.35,1.19.22.38.53.71.86.91l.64.37v-2.79l-.64-.37c-.68-.39-1.22-.08-1.22.7Z"/>
            <path class="st21" d="M59.09,113.05c-.16.14-.26.38-.26.71,0,.38.14.82.35,1.19.22.38.53.71.86.91l.29.17v.35l-.64-.37c-.34-.19-.64-.53-.86-.91-.22-.37-.35-.81-.35-1.19,0-.52.24-.82.6-.85Z"/>
            <polygon class="st18" points="61.6 116.76 61.26 116.91 61.26 114.11 61.6 114.31 61.6 116.76"/>
          </g>
          <g>
            <path class="st5" d="M61.9,118.1l-.64-.37v2.79l.64.37c.67.39,1.21.08,1.21-.69,0-.39-.13-.82-.35-1.2-.22-.38-.52-.71-.86-.9Z"/>
            <path class="st21" d="M61.6,117.93v2.45l.64.37c.22.13.43.17.61.16-.22.2-.57.22-.95,0l-.64-.37v-2.79l.34.2Z"/>
            <path class="st5" d="M58.48,117.53c0,.38.14.82.35,1.19.22.38.53.71.86.91l.64.37v-2.79l-.64-.37c-.68-.39-1.22-.08-1.22.7Z"/>
            <path class="st21" d="M59.09,116.68c-.16.14-.26.38-.26.71,0,.38.14.82.35,1.19.22.38.53.71.86.91l.29.17v.35l-.64-.37c-.34-.2-.64-.53-.86-.91-.22-.37-.35-.81-.35-1.19,0-.52.24-.82.6-.85Z"/>
            <polygon class="st18" points="61.6 120.38 61.26 120.53 61.26 117.73 61.6 117.93 61.6 120.38"/>
          </g>
          <g>
            <path class="st5" d="M61.9,121.72l-.64-.37v2.79l.64.37c.67.39,1.21.08,1.21-.69,0-.39-.13-.82-.35-1.2-.22-.38-.52-.71-.86-.9Z"/>
            <path class="st21" d="M61.6,121.55v2.45l.64.37c.22.13.43.17.61.16-.22.2-.57.22-.95,0l-.64-.37v-2.79l.34.2Z"/>
            <path class="st5" d="M58.48,121.15c0,.38.14.82.35,1.19.22.38.53.71.86.91l.64.37v-2.79l-.64-.37c-.68-.39-1.22-.08-1.22.7Z"/>
            <path class="st21" d="M59.09,120.3c-.16.14-.26.38-.26.71,0,.38.14.82.35,1.19.22.38.53.71.86.91l.29.17v.35l-.64-.37c-.34-.2-.64-.53-.86-.91-.22-.37-.35-.81-.35-1.19,0-.52.24-.82.6-.85Z"/>
            <polygon class="st18" points="61.6 124 61.26 124.15 61.26 121.35 61.6 121.55 61.6 124"/>
          </g>
          <g>
            <path class="st5" d="M61.9,125.35l-.64-.37v2.79l.64.37c.67.39,1.21.08,1.21-.69,0-.39-.14-.82-.35-1.2-.22-.38-.52-.71-.86-.9Z"/>
            <path class="st21" d="M61.6,125.17v2.45l.64.37c.22.13.43.17.61.16-.22.2-.57.22-.95,0l-.64-.37v-2.79l.34.2Z"/>
            <path class="st5" d="M58.48,124.77c0,.38.14.82.35,1.19.22.38.53.71.86.91l.64.37v-2.79l-.64-.37c-.68-.39-1.22-.08-1.22.7Z"/>
            <path class="st21" d="M59.09,123.92c-.16.14-.26.38-.26.71,0,.38.14.82.35,1.19.22.38.53.71.86.91l.29.17v.35l-.64-.37c-.34-.19-.64-.53-.86-.91-.22-.38-.35-.81-.35-1.19,0-.52.24-.82.6-.85Z"/>
            <polygon class="st18" points="61.6 127.62 61.26 127.77 61.26 124.98 61.6 125.17 61.6 127.62"/>
          </g>
        </g>
        <polygon class="st1" points="193.27 121.82 194.32 122.33 194.32 103.36 193.27 103.97 193.27 121.82"/>
        <polygon class="st13" points="91.9 114.67 130 136.66 197.67 96.92 91.9 114.67"/>
        <polygon class="st13" points="14.99 69.01 119.87 51.42 82.08 29.6 14.99 69.01"/>
        <polygon class="st13" points="76.12 105.56 82.63 109.32 189.19 91.45 182.68 87.69 76.12 105.56"/>
        <polygon class="st13" points="21.32 73.87 27.83 77.63 134.39 59.76 127.88 56 21.32 73.87"/>
        <polygon class="st13" points="36.68 82.81 65.39 99.39 171.95 81.51 143.24 64.94 36.68 82.81"/>
        <g>
          <path class="st24" d="M115.58,149.63v12.4c0,1.34.48,2.27,1.26,2.78l.22.13c.27.13.57.22.9.26.13.01.27.03.41.03.77,0,1.64-.24,2.6-.75.09-.04.17-.09.26-.14l1.16-.67,1.7-.98v-2.06l-2.85,1.66c-.58.32-1.12.5-1.59.53-.51.06-.95-.05-1.28-.31-.44-.33-.69-.9-.69-1.67v-11.52c0-1.19.6-2.6,1.52-3.75.59-.75,1.3-1.37,2.06-1.82l2.85-1.64v-2.06l-4.39,2.31c-1.25.72-2.15,1.54-2.77,2.45-.96,1.37-1.32,2.99-1.32,4.83Z"/>
          <path class="st20" d="M118.29,162.52l1.77,2.07.9-.12,3.62-.48,1.31-2.3-1.82-1.07-2.85,1.66c-.58.32-1.12.5-1.59.53-.08-.21-.13-.44-.14-.69l-1.14.39h-.05Z"/>
          <path class="st17" d="M115.58,162.03c0,1.34.48,2.27,1.26,2.78l.22.13,1.52.89.09.05-.3-.66-.96-2.12-1.82-1.07Z"/>
          <path class="st20" d="M116.91,144.8l1.84,1.04.42-.28,6.73-4.46-1.82-1.07-4.39,2.31c-1.25.72-2.15,1.54-2.77,2.45Z"/>
          <path class="st18" d="M117.41,150.7v12.4c0,.86.21,1.57.55,2.09.17.26.37.46.62.63l.09.05c1.04.66,2.62.54,4.38-.48l2.85-1.66v-2.04l-2.85,1.66c-.23.13-.45.23-.67.31-1.32.53-2.38.18-2.75-.85-.08-.21-.13-.44-.14-.69-.01-.08-.01-.14-.01-.22v-11.52c0-1.94,1.59-4.45,3.57-5.58l2.85-1.66v-2.04l-1.82.96-2.56,1.35c-3.11,1.8-4.11,4.21-4.11,7.28Z"/>
        </g>
        <g>
          <path class="st24" d="M1.83,83.75v12.4c0,1.34.48,2.27,1.26,2.78l.22.13c.27.13.57.22.9.26.13.01.27.03.41.03.77,0,1.64-.24,2.6-.75.09-.04.17-.09.26-.14l1.16-.67,1.7-.98v-2.06l-2.85,1.66c-.58.32-1.12.5-1.59.53-.51.06-.95-.05-1.28-.31-.44-.33-.69-.9-.69-1.67v-11.52c0-1.19.6-2.6,1.52-3.75.59-.75,1.3-1.37,2.06-1.82l2.85-1.64v-2.06l-4.39,2.31c-1.25.72-2.15,1.54-2.78,2.45-.96,1.37-1.32,2.99-1.32,4.83Z"/>
          <path class="st20" d="M4.54,96.63l1.77,2.07.9-.12,3.62-.48,1.31-2.3-1.82-1.07-2.85,1.66c-.58.32-1.12.5-1.59.53-.08-.21-.13-.44-.14-.69l-1.14.39h-.05Z"/>
          <path class="st17" d="M1.83,96.14c0,1.34.48,2.27,1.26,2.78l.22.13,1.52.89.09.05-.3-.66-.96-2.12-1.82-1.07Z"/>
          <path class="st20" d="M3.15,78.92l1.84,1.04.42-.28,6.73-4.46-1.82-1.07-4.39,2.31c-1.25.72-2.15,1.54-2.78,2.45Z"/>
          <path class="st18" d="M3.65,84.81v12.4c0,.86.21,1.57.55,2.09.17.26.37.46.62.63l.09.05c1.04.66,2.62.54,4.38-.48l2.85-1.66v-2.04l-2.85,1.66c-.23.13-.45.23-.67.31-1.32.53-2.38.18-2.75-.85-.08-.21-.13-.44-.14-.69-.01-.08-.01-.14-.01-.22v-11.52c0-1.94,1.59-4.45,3.57-5.58l2.85-1.66v-2.04l-1.82.96-2.56,1.35c-3.11,1.8-4.11,4.21-4.11,7.28Z"/>
        </g>
        <g>
          <polygon class="st5" points="107.4 130.42 107.4 137.71 114.41 141.76 114.41 134.47 107.4 130.42"/>
          <polygon class="st21" points="108.13 130.84 108.13 137.32 114.41 140.94 114.41 141.76 107.4 137.72 107.4 130.42 108.13 130.84"/>
          <polygon class="st18" points="108.13 137.32 107.4 137.72 107.4 130.42 108.13 130.84 108.13 137.32"/>
          <polygon class="st21" points="107.4 136 114.41 140.04 114.41 139.33 108.13 135.72 107.4 136"/>
          <polygon class="st1" points="107.4 136 107.4 136.36 114.41 140.4 114.41 140.04 107.4 136"/>
          <polygon class="st21" points="107.4 134.54 114.41 138.58 114.41 137.88 108.13 134.26 107.4 134.54"/>
          <polygon class="st1" points="107.4 134.54 107.4 134.91 114.41 138.95 114.41 138.59 107.4 134.54"/>
          <polygon class="st21" points="107.4 133.09 114.41 137.13 114.41 136.43 108.13 132.81 107.4 133.09"/>
          <polygon class="st1" points="107.4 133.09 107.4 133.45 114.41 137.49 114.41 137.13 107.4 133.09"/>
          <polygon class="st21" points="107.4 131.64 114.41 135.68 114.41 134.97 108.13 131.35 107.4 131.64"/>
          <polygon class="st1" points="107.4 131.64 107.4 132 114.41 136.04 114.41 135.68 107.4 131.64"/>
        </g>
        <g>
          <polygon class="st5" points="107.4 138.84 107.4 146.14 114.41 150.18 114.41 142.89 107.4 138.84"/>
          <polygon class="st21" points="108.13 139.27 108.13 145.74 114.41 149.36 114.41 150.18 107.4 146.14 107.4 138.84 108.13 139.27"/>
          <polygon class="st18" points="108.13 145.74 107.4 146.14 107.4 138.84 108.13 139.27 108.13 145.74"/>
          <polygon class="st21" points="107.4 144.42 114.41 148.46 114.41 147.75 108.13 144.15 107.4 144.42"/>
          <polygon class="st1" points="107.4 144.42 107.4 144.78 114.41 148.82 114.41 148.46 107.4 144.42"/>
          <polygon class="st21" points="107.4 142.96 114.41 147 114.41 146.3 108.13 142.69 107.4 142.96"/>
          <polygon class="st1" points="107.4 142.96 107.4 143.33 114.41 147.37 114.41 147.01 107.4 142.96"/>
          <polygon class="st21" points="107.4 141.51 114.41 145.55 114.41 144.86 108.13 141.24 107.4 141.51"/>
          <polygon class="st1" points="107.4 141.51 107.4 141.87 114.41 145.91 114.41 145.55 107.4 141.51"/>
          <polygon class="st21" points="107.4 140.07 114.41 144.1 114.41 143.39 108.13 139.78 107.4 140.07"/>
          <polygon class="st1" points="107.4 140.07 107.4 140.42 114.41 144.46 114.41 144.1 107.4 140.07"/>
        </g>
        <g>
          <polygon class="st5" points="107.4 147.19 107.4 154.48 114.41 158.53 114.41 151.24 107.4 147.19"/>
          <polygon class="st21" points="108.13 147.61 108.13 154.09 114.41 157.71 114.41 158.53 107.4 154.48 107.4 147.19 108.13 147.61"/>
          <polygon class="st18" points="108.13 154.09 107.4 154.48 107.4 147.19 108.13 147.61 108.13 154.09"/>
          <polygon class="st21" points="107.4 152.77 114.41 156.81 114.41 156.1 108.13 152.49 107.4 152.77"/>
          <polygon class="st1" points="107.4 152.77 107.4 153.13 114.41 157.16 114.41 156.81 107.4 152.77"/>
          <polygon class="st21" points="107.4 151.31 114.41 155.34 114.41 154.65 108.13 151.03 107.4 151.31"/>
          <polygon class="st1" points="107.4 151.31 107.4 151.68 114.41 155.72 114.41 155.36 107.4 151.31"/>
          <polygon class="st21" points="107.4 149.86 114.41 153.9 114.41 153.2 108.13 149.58 107.4 149.86"/>
          <polygon class="st1" points="107.4 149.86 107.4 150.22 114.41 154.25 114.41 153.9 107.4 149.86"/>
          <polygon class="st21" points="107.4 148.41 114.41 152.45 114.41 151.74 108.13 148.12 107.4 148.41"/>
          <polygon class="st1" points="107.4 148.41 107.4 148.77 114.41 152.81 114.41 152.45 107.4 148.41"/>
        </g>
        <g>
          <path class="st5" d="M91.42,124.26v.43c0,.54.29,1.04.76,1.31l12.14,6.98c.5.29,1.12-.07,1.12-.65v-.43c0-.54-.29-1.04-.76-1.31l-12.14-6.98c-.5-.29-1.12.07-1.12.65Z"/>
          <path class="st21" d="M92.39,123.57c-.09.12-.15.26-.15.43v.43c0,.54.29,1.04.76,1.31l12.14,6.98s.1.02.15.04c-.21.3-.62.43-.98.22l-12.14-6.98c-.47-.27-.76-.77-.76-1.31v-.43c0-.52.5-.84.97-.69Z"/>
        </g>
        <g>
          <path class="st5" d="M91.42,128.12v.43c0,.54.29,1.04.76,1.31l12.14,6.98c.5.29,1.12-.07,1.12-.65v-.43c0-.54-.29-1.04-.76-1.31l-12.14-6.98c-.5-.29-1.12.07-1.12.65Z"/>
          <path class="st21" d="M92.39,127.43c-.09.12-.15.26-.15.43v.43c0,.54.29,1.04.76,1.31l12.14,6.98s.1.02.15.04c-.21.3-.62.43-.98.22l-12.14-6.98c-.47-.27-.76-.77-.76-1.31v-.43c0-.52.5-.84.97-.69Z"/>
        </g>
        <g>
          <path class="st5" d="M91.42,131.98v.43c0,.54.29,1.04.76,1.31l12.14,6.98c.5.29,1.12-.07,1.12-.65v-.43c0-.54-.29-1.04-.76-1.31l-12.14-6.98c-.5-.29-1.12.07-1.12.65Z"/>
          <path class="st21" d="M92.39,131.29c-.09.12-.15.26-.15.43v.43c0,.54.29,1.04.76,1.31l12.14,6.98s.1.02.15.04c-.21.3-.62.43-.98.22l-12.14-6.98c-.47-.27-.76-.77-.76-1.31v-.43c0-.52.5-.84.97-.69Z"/>
        </g>
        <g>
          <path class="st5" d="M91.42,135.84v.43c0,.54.29,1.04.76,1.31l12.14,6.98c.5.29,1.12-.07,1.12-.65v-.43c0-.54-.29-1.04-.76-1.31l-12.14-6.98c-.5-.29-1.12.07-1.12.65Z"/>
          <path class="st21" d="M92.39,135.15c-.09.12-.15.26-.15.43v.43c0,.54.29,1.04.76,1.31l12.14,6.98s.1.02.15.04c-.21.3-.62.43-.98.22l-12.14-6.98c-.47-.27-.76-.77-.76-1.31v-.43c0-.52.5-.84.97-.69Z"/>
        </g>
        <g>
          <path class="st5" d="M91.42,139.69v.43c0,.54.29,1.04.76,1.31l12.14,6.98c.5.29,1.12-.07,1.12-.65v-.43c0-.54-.29-1.04-.76-1.31l-12.14-6.98c-.5-.29-1.12.07-1.12.65Z"/>
          <path class="st21" d="M92.39,139.01c-.09.12-.15.26-.15.43v.43c0,.54.29,1.04.76,1.31l12.14,6.98s.1.02.15.04c-.21.29-.62.43-.98.22l-12.14-6.98c-.47-.27-.76-.77-.76-1.31v-.43c0-.52.5-.84.97-.69Z"/>
        </g>
        <g>
          <path class="st5" d="M91.42,143.55v.43c0,.54.29,1.04.76,1.31l12.14,6.98c.5.29,1.12-.07,1.12-.65v-.43c0-.54-.29-1.04-.76-1.31l-12.14-6.98c-.5-.29-1.12.07-1.12.65Z"/>
          <path class="st21" d="M92.39,142.87c-.09.12-.15.26-.15.43v.43c0,.54.29,1.04.76,1.31l12.14,6.98s.1.02.15.04c-.21.3-.62.43-.98.22l-12.14-6.98c-.47-.27-.76-.77-.76-1.31v-.43c0-.52.5-.84.97-.69Z"/>
        </g>
        <g>
          <g>
            <path class="st5" d="M63.54,107.45v.43c0,.54.29,1.04.76,1.31l5.2,3.01c.5.29,1.12-.07,1.12-.65v-.43c0-.54-.29-1.04-.76-1.31l-5.2-3.01c-.5-.29-1.12.07-1.12.65Z"/>
            <path class="st21" d="M64.51,106.76c-.09.12-.15.26-.15.43v.43c0,.54.29,1.04.76,1.31l5.2,3.01s.1.02.15.04c-.21.3-.62.43-.98.22l-5.2-3.01c-.47-.27-.76-.77-.76-1.31v-.43c0-.52.5-.84.97-.69Z"/>
          </g>
          <g>
            <path class="st5" d="M63.54,111.31v.43c0,.54.29,1.04.76,1.31l5.2,3.01c.5.29,1.12-.07,1.12-.65v-.43c0-.54-.29-1.04-.76-1.31l-5.2-3.01c-.5-.29-1.12.07-1.12.65Z"/>
            <path class="st21" d="M64.51,110.62c-.09.12-.15.26-.15.43v.43c0,.54.29,1.04.76,1.31l5.2,3.01s.1.02.15.04c-.21.3-.62.43-.98.22l-5.2-3.01c-.47-.27-.76-.77-.76-1.31v-.43c0-.52.5-.84.97-.69Z"/>
          </g>
          <g>
            <path class="st5" d="M63.54,115.17v.43c0,.54.29,1.04.76,1.31l5.2,3.01c.5.29,1.12-.07,1.12-.65v-.43c0-.54-.29-1.04-.76-1.31l-5.2-3.01c-.5-.29-1.12.07-1.12.65Z"/>
            <path class="st21" d="M64.51,114.48c-.09.12-.15.26-.15.43v.43c0,.54.29,1.04.76,1.31l5.2,3.01s.1.02.15.04c-.21.3-.62.43-.98.22l-5.2-3.01c-.47-.27-.76-.77-.76-1.31v-.43c0-.52.5-.84.97-.69Z"/>
          </g>
          <g>
            <path class="st5" d="M63.54,119.03v.43c0,.54.29,1.04.76,1.31l5.2,3.01c.5.29,1.12-.07,1.12-.65v-.43c0-.54-.29-1.04-.76-1.31l-5.2-3.01c-.5-.29-1.12.07-1.12.65Z"/>
            <path class="st21" d="M64.51,118.34c-.09.12-.15.26-.15.43v.43c0,.54.29,1.04.76,1.31l5.2,3.01s.1.02.15.04c-.21.3-.62.43-.98.22l-5.2-3.01c-.47-.27-.76-.77-.76-1.31v-.43c0-.52.5-.84.97-.69Z"/>
          </g>
          <g>
            <path class="st5" d="M63.54,122.89v.43c0,.54.29,1.04.76,1.31l5.2,3.01c.5.29,1.12-.07,1.12-.65v-.43c0-.54-.29-1.04-.76-1.31l-5.2-3.01c-.5-.29-1.12.07-1.12.65Z"/>
            <path class="st21" d="M64.51,122.2c-.09.12-.15.26-.15.43v.43c0,.54.29,1.04.76,1.31l5.2,3.01s.1.02.15.04c-.21.3-.62.43-.98.22l-5.2-3.01c-.47-.27-.76-.77-.76-1.31v-.43c0-.52.5-.84.97-.69Z"/>
          </g>
          <g>
            <path class="st5" d="M63.54,126.75v.43c0,.54.29,1.04.76,1.31l5.2,3.01c.5.29,1.12-.07,1.12-.65v-.43c0-.54-.29-1.04-.76-1.31l-5.2-3.01c-.5-.29-1.12.07-1.12.65Z"/>
            <path class="st21" d="M64.51,126.06c-.09.12-.15.26-.15.43v.43c0,.54.29,1.04.76,1.31l5.2,3.01s.1.02.15.04c-.21.3-.62.43-.98.22l-5.2-3.01c-.47-.27-.76-.77-.76-1.31v-.43c0-.52.5-.84.97-.69Z"/>
          </g>
        </g>
        <g>
          <polygon class="st8" points="81.55 115.89 81.55 123.19 88.55 127.23 88.55 119.94 81.55 115.89"/>
          <polygon class="st16" points="83.1 116.79 83.1 122.43 88.55 125.58 88.55 127.23 81.55 123.19 81.55 115.89 83.1 116.79"/>
          <polygon class="st12" points="81.55 123.19 83.1 122.43 88.55 125.58 88.55 127.23 81.55 123.19"/>
        </g>
        <g>
          <polygon class="st0" points="81.55 124.17 81.55 131.46 88.55 135.51 88.55 128.22 81.55 124.17"/>
          <polygon class="st16" points="83.1 125.07 83.1 130.71 88.55 133.86 88.55 135.51 81.55 131.46 81.55 124.17 83.1 125.07"/>
          <polygon class="st12" points="81.55 131.46 83.1 130.71 88.55 133.86 88.55 135.51 81.55 131.46"/>
        </g>
        <g>
          <polygon class="st2" points="81.55 132.39 81.55 139.68 88.55 143.73 88.55 136.44 81.55 132.39"/>
          <polygon class="st16" points="83.1 133.29 83.1 138.93 88.55 142.08 88.55 143.73 81.55 139.68 81.55 132.39 83.1 133.29"/>
          <polygon class="st12" points="81.55 139.68 83.1 138.93 88.55 142.08 88.55 143.73 81.55 139.68"/>
        </g>
        <g>
          <polygon class="st5" points="49.6 96.27 49.6 103.57 56.6 107.62 56.6 100.32 49.6 96.27"/>
          <polygon class="st21" points="50.33 96.7 50.33 103.17 56.6 106.79 56.6 107.62 49.6 103.57 49.6 96.28 50.33 96.7"/>
          <polygon class="st18" points="50.33 103.17 49.6 103.57 49.6 96.28 50.33 96.7 50.33 103.17"/>
          <polygon class="st21" points="49.6 101.86 56.6 105.89 56.6 105.18 50.33 101.58 49.6 101.86"/>
          <polygon class="st1" points="49.6 101.86 49.6 102.21 56.6 106.25 56.6 105.89 49.6 101.86"/>
          <polygon class="st21" points="49.6 100.39 56.6 104.43 56.6 103.74 50.33 100.12 49.6 100.39"/>
          <polygon class="st1" points="49.6 100.39 49.6 100.77 56.6 104.8 56.6 104.44 49.6 100.39"/>
          <polygon class="st21" points="49.6 98.95 56.6 102.98 56.6 102.29 50.33 98.67 49.6 98.95"/>
          <polygon class="st1" points="49.6 98.95 49.6 99.3 56.6 103.34 56.6 102.98 49.6 98.95"/>
          <polygon class="st21" points="49.6 97.5 56.6 101.53 56.6 100.83 50.33 97.21 49.6 97.5"/>
          <polygon class="st1" points="49.6 97.5 49.6 97.86 56.6 101.89 56.6 101.53 49.6 97.5"/>
        </g>
        <g>
          <polygon class="st5" points="49.6 104.7 49.6 111.99 56.6 116.04 56.6 108.75 49.6 104.7"/>
          <polygon class="st21" points="50.33 105.12 50.33 111.6 56.6 115.22 56.6 116.04 49.6 112 49.6 104.7 50.33 105.12"/>
          <polygon class="st18" points="50.33 111.6 49.6 112 49.6 104.7 50.33 105.12 50.33 111.6"/>
          <polygon class="st21" points="49.6 110.28 56.6 114.32 56.6 113.61 50.33 110 49.6 110.28"/>
          <polygon class="st1" points="49.6 110.28 49.6 110.64 56.6 114.67 56.6 114.32 49.6 110.28"/>
          <polygon class="st21" points="49.6 108.82 56.6 112.85 56.6 112.16 50.33 108.54 49.6 108.82"/>
          <polygon class="st1" points="49.6 108.82 49.6 109.19 56.6 113.23 56.6 112.87 49.6 108.82"/>
          <polygon class="st21" points="49.6 107.37 56.6 111.41 56.6 110.71 50.33 107.09 49.6 107.37"/>
          <polygon class="st1" points="49.6 107.37 49.6 107.73 56.6 111.76 56.6 111.41 49.6 107.37"/>
          <polygon class="st21" points="49.6 105.92 56.6 109.96 56.6 109.25 50.33 105.63 49.6 105.92"/>
          <polygon class="st1" points="49.6 105.92 49.6 106.28 56.6 110.32 56.6 109.96 49.6 105.92"/>
        </g>
        <g>
          <polygon class="st5" points="49.6 113.04 49.6 120.34 56.6 124.39 56.6 117.09 49.6 113.04"/>
          <polygon class="st21" points="50.33 113.47 50.33 119.94 56.6 123.56 56.6 124.38 49.6 120.34 49.6 113.05 50.33 113.47"/>
          <polygon class="st18" points="50.33 119.94 49.6 120.34 49.6 113.05 50.33 113.47 50.33 119.94"/>
          <polygon class="st21" points="49.6 118.62 56.6 122.66 56.6 121.95 50.33 118.35 49.6 118.62"/>
          <polygon class="st1" points="49.6 118.62 49.6 118.98 56.6 123.02 56.6 122.66 49.6 118.62"/>
          <polygon class="st21" points="49.6 117.16 56.6 121.2 56.6 120.51 50.33 116.89 49.6 117.16"/>
          <polygon class="st1" points="49.6 117.16 49.6 117.54 56.6 121.57 56.6 121.21 49.6 117.16"/>
          <polygon class="st21" points="49.6 115.71 56.6 119.75 56.6 119.06 50.33 115.44 49.6 115.71"/>
          <polygon class="st1" points="49.6 115.71 49.6 116.07 56.6 120.11 56.6 119.75 49.6 115.71"/>
          <polygon class="st21" points="49.6 114.27 56.6 118.3 56.6 117.59 50.33 113.98 49.6 114.27"/>
          <polygon class="st1" points="49.6 114.27 49.6 114.62 56.6 118.66 56.6 118.3 49.6 114.27"/>
        </g>
        <g>
          <path class="st5" d="M33.62,90.11v.43c0,.54.29,1.04.76,1.31l12.14,6.98c.5.29,1.12-.07,1.12-.65v-.43c0-.54-.29-1.04-.76-1.31l-12.14-6.98c-.5-.29-1.12.07-1.12.65Z"/>
          <path class="st21" d="M34.59,89.43c-.09.12-.15.26-.15.43v.43c0,.54.29,1.04.76,1.31l12.14,6.98s.1.02.15.04c-.21.3-.62.43-.98.22l-12.14-6.98c-.47-.27-.76-.77-.76-1.31v-.43c0-.52.5-.84.97-.69Z"/>
        </g>
        <g>
          <path class="st5" d="M33.62,93.97v.43c0,.54.29,1.04.76,1.31l12.14,6.98c.5.29,1.12-.07,1.12-.65v-.43c0-.54-.29-1.04-.76-1.31l-12.14-6.98c-.5-.29-1.12.07-1.12.65Z"/>
          <path class="st21" d="M34.59,93.28c-.09.12-.15.26-.15.43v.43c0,.54.29,1.04.76,1.31l12.14,6.98s.1.02.15.04c-.21.3-.62.43-.98.22l-12.14-6.98c-.47-.27-.76-.77-.76-1.31v-.43c0-.52.5-.84.97-.69Z"/>
        </g>
        <g>
          <path class="st5" d="M33.62,97.83v.43c0,.54.29,1.04.76,1.31l12.14,6.98c.5.29,1.12-.07,1.12-.65v-.43c0-.54-.29-1.04-.76-1.31l-12.14-6.98c-.5-.29-1.12.07-1.12.65Z"/>
          <path class="st21" d="M34.59,97.14c-.09.12-.15.26-.15.43v.43c0,.54.29,1.04.76,1.31l12.14,6.98s.1.02.15.04c-.21.3-.62.43-.98.22l-12.14-6.98c-.47-.27-.76-.77-.76-1.31v-.43c0-.52.5-.84.97-.69Z"/>
        </g>
        <g>
          <path class="st5" d="M33.62,101.69v.43c0,.54.29,1.04.76,1.31l12.14,6.98c.5.29,1.12-.07,1.12-.65v-.43c0-.54-.29-1.04-.76-1.31l-12.14-6.98c-.5-.29-1.12.07-1.12.65Z"/>
          <path class="st21" d="M34.59,101c-.09.12-.15.26-.15.43v.43c0,.54.29,1.04.76,1.31l12.14,6.98s.1.02.15.04c-.21.3-.62.43-.98.22l-12.14-6.98c-.47-.27-.76-.77-.76-1.31v-.43c0-.52.5-.84.97-.69Z"/>
        </g>
        <g>
          <path class="st5" d="M33.62,105.55v.43c0,.54.29,1.04.76,1.31l12.14,6.98c.5.29,1.12-.07,1.12-.65v-.43c0-.54-.29-1.04-.76-1.31l-12.14-6.98c-.5-.29-1.12.07-1.12.65Z"/>
          <path class="st21" d="M34.59,104.86c-.09.12-.15.26-.15.43v.43c0,.54.29,1.04.76,1.31l12.14,6.98s.1.02.15.04c-.21.3-.62.43-.98.22l-12.14-6.98c-.47-.27-.76-.77-.76-1.31v-.43c0-.52.5-.84.97-.69Z"/>
        </g>
        <g>
          <path class="st5" d="M33.62,109.41v.43c0,.54.29,1.04.76,1.31l12.14,6.98c.5.29,1.12-.07,1.12-.65v-.43c0-.54-.29-1.04-.76-1.31l-12.14-6.98c-.5-.29-1.12.07-1.12.65Z"/>
          <path class="st21" d="M34.59,108.72c-.09.12-.15.26-.15.43v.43c0,.54.29,1.04.76,1.31l12.14,6.98s.1.02.15.04c-.21.3-.62.43-.98.22l-12.14-6.98c-.47-.27-.76-.77-.76-1.31v-.43c0-.52.5-.84.97-.69Z"/>
        </g>
        <g>
          <polygon class="st3" points="23.74 81.75 23.74 89.04 30.75 93.09 30.75 85.8 23.74 81.75"/>
          <polygon class="st16" points="25.29 82.65 25.29 88.29 30.75 91.44 30.75 93.09 23.74 89.04 23.74 81.75 25.29 82.65"/>
          <polygon class="st12" points="23.74 89.04 25.29 88.29 30.75 91.44 30.75 93.09 23.74 89.04"/>
        </g>
        <g>
          <polygon class="st14" points="23.74 90.03 23.74 97.32 30.75 101.37 30.75 94.07 23.74 90.03"/>
          <polygon class="st16" points="25.29 90.92 25.29 96.57 30.75 99.72 30.75 101.37 23.74 97.32 23.74 90.03 25.29 90.92"/>
          <polygon class="st12" points="23.74 97.32 25.29 96.57 30.75 99.72 30.75 101.37 23.74 97.32"/>
        </g>
        <g>
          <polygon class="st19" points="23.74 98.25 23.74 105.54 30.75 109.59 30.75 102.29 23.74 98.25"/>
          <polygon class="st16" points="25.29 99.14 25.29 104.79 30.75 107.94 30.75 109.59 23.74 105.54 23.74 98.25 25.29 99.14"/>
          <polygon class="st12" points="23.74 105.54 25.29 104.79 30.75 107.94 30.75 109.59 23.74 105.54"/>
        </g>
        <path class="st11" d="M21.5,85.18c-.47,0-1.23-.46-1.81-1.46-.66-1.15-.61-2.24-.16-2.5.08-.05.17-.07.28-.07.47,0,1.23.46,1.81,1.46.66,1.15.62,2.24.16,2.5-.08.05-.17.07-.28.07Z"/>
        <path class="st22" d="M21.5,94.38c-.47,0-1.23-.46-1.81-1.46-.66-1.15-.61-2.24-.16-2.5.08-.05.17-.07.28-.07.47,0,1.23.46,1.81,1.46.66,1.15.62,2.24.16,2.5-.08.05-.17.07-.28.07Z"/>
        <path class="st25" d="M21.5,103.58c-.47,0-1.23-.46-1.81-1.46-.66-1.15-.61-2.24-.16-2.5.08-.05.17-.07.28-.07.47,0,1.23.46,1.81,1.46.66,1.15.62,2.24.16,2.5-.08.05-.17.07-.28.07Z"/>
        <path class="st6" d="M79.77,120.25c-.47,0-1.23-.46-1.81-1.46-.66-1.15-.62-2.24-.16-2.5.08-.05.17-.07.28-.07.47,0,1.23.46,1.81,1.46.66,1.15.62,2.24.16,2.5-.08.05-.17.07-.28.07Z"/>
        <path class="st7" d="M79.77,128.42c-.47,0-1.23-.46-1.81-1.46-.66-1.15-.62-2.24-.16-2.5.08-.05.17-.07.28-.07.47,0,1.23.46,1.81,1.46.66,1.15.62,2.24.16,2.5-.08.05-.17.07-.28.07Z"/>
        <path class="st10" d="M79.77,137.22c-.47,0-1.23-.46-1.81-1.46-.66-1.15-.62-2.24-.16-2.5.08-.05.17-.07.28-.07.47,0,1.23.46,1.81,1.46.66,1.15.62,2.24.16,2.5-.08.05-.17.07-.28.07Z"/>
      </g>
    </g>
  </g>
</svg>