<?xml version="1.0" encoding="UTF-8"?>
<svg xmlns="http://www.w3.org/2000/svg" version="1.1" viewBox="0 0 200 200">
  <path d="M157.3987,93.7304h28.1722c2.5521,0,4.7409,1.0064,6.3482,2.5635L136.5178,6.3875c-1.6702-2.7107-4.6264-4.3614-7.8104-4.3614h-28.0405c-7.1751,0-11.573,7.8657-7.8158,13.9782l52.7978,85.895c.2592.4215.5588.8074.8761,1.1756l3.0578-4.9746c1.6693-2.7154,4.6282-4.3699,7.8158-4.3699h0Z" fill="#004eea"/>
  <path d="M194.3669,100.331c-.4542-1.5298-1.2988-2.9237-2.4479-4.037-1.6073-1.5571-3.796-2.5635-6.3482-2.5635h-28.1722c-3.1876,0-6.1465,1.6545-7.8158,4.3699l-3.0578,4.9746-54.4153,88.5264c-1.7128,2.7866.292,6.3723,3.5629,6.3723h36.9688c3.1838,0,6.1401-1.6507,7.8104-4.3613l52.9293-85.8952c1.0205-1.656,1.4242-3.4392,1.3532-5.1623-.0314-.7597-.154-1.5049-.3675-2.224h.0001Z" fill="#0034b7"/>
  <path d="M41.5818,93.7304c2.9809,0,5.7759,1.4483,7.4949,3.8836l3.9502,5.5961c.2335-.261.4553-.5345.6598-.8241l25.3027-35.8456c4.2896-6.0771-.0565-14.4646-7.495-14.4646h-27.2602c-2.9873,0-5.7875,1.4544-7.5054,3.8982l-27.8648,39.6404c1.5049-1.1585,3.3969-1.8838,5.5629-1.8838h27.1549v-.0002Z" fill="#ffa522"/>
  <path d="M79.9353,141.33l-26.9083-38.1199-3.9502-5.5961c-1.719-2.4353-4.5141-3.8836-7.4949-3.8836H14.4269c-2.166,0-4.0579.7253-5.5629,1.8838-1.5472,1.1911-2.6662,2.8469-3.2205,4.6962-.2138.7133-.3436,1.4499-.3791,2.2019-.0899,1.9078.4042,3.8855,1.6572,5.668l25.1973,35.8457c1.7179,2.4438,4.5181,3.8982,7.5054,3.8982h36.8943v-.0003c3.391,0,5.3722-3.8237,3.4167-6.5941v.0002Z" fill="#ffb757"/>
</svg>